<?xml version="1.0" standalone="no"?>
<!DOCTYPE svg PUBLIC "-//W3C//DTD SVG 20010904//EN"
 "http://www.w3.org/TR/2001/REC-SVG-20010904/DTD/svg10.dtd">
<svg version="1.0" xmlns="http://www.w3.org/2000/svg"
 width="180.000000pt" height="180.000000pt" viewBox="0 0 180.000000 180.000000"
 preserveAspectRatio="xMidYMid meet">
<style>
    .fav-icon {
        fill: #2563eb;
    }
</style>

<g transform="translate(0.000000,180.000000) scale(0.100000,-0.100000)"
class="fav-icon" stroke="none">
<path d="M122 1723 c-18 -9 -45 -32 -60 -51 l-27 -35 -3 -735 c-2 -728 -2
-735 19 -778 11 -24 35 -52 53 -64 33 -20 46 -20 793 -20 l760 0 33 22 c18 13
41 39 51 58 18 33 19 74 19 771 l0 736 -22 33 c-13 18 -36 43 -51 54 -28 21
-35 21 -780 23 -681 3 -755 1 -785 -14z m1412 -482 c21 -5 42 -13 47 -18 5 -5
1 -32 -8 -61 -15 -45 -20 -51 -37 -46 -28 9 -77 7 -87 -3 -5 -5 -12 -23 -15
-41 l-6 -32 66 0 67 0 -3 -57 -3 -58 -57 -3 -58 -3 -2 -182 -3 -182 -75 0 -75
0 0 180 0 180 -35 5 c-35 5 -35 5 -38 63 l-3 57 35 0 c33 0 36 2 41 38 4 20
11 49 17 65 13 35 70 85 106 93 15 3 32 7 37 9 18 6 50 5 89 -4z m-494 -141
l0 -60 60 0 60 0 0 -61 0 -61 -60 4 -60 3 0 -112 c0 -134 8 -149 76 -139 42 5
42 5 58 -35 9 -21 16 -46 16 -53 0 -40 -176 -48 -227 -10 -62 46 -68 64 -71
209 l-4 134 -36 3 -37 3 -3 58 -3 57 41 0 40 0 0 60 0 60 75 0 75 0 0 -60z
m-395 -68 c87 -44 135 -122 135 -217 l0 -55 -185 0 -186 0 16 -31 c31 -58 124
-76 203 -38 l44 22 41 -42 42 -42 -25 -20 c-52 -41 -85 -53 -166 -57 -138 -7
-227 37 -278 140 -70 139 -2 297 151 354 52 20 157 13 208 -14z"/>
<path d="M461 926 c-22 -12 -50 -50 -51 -68 0 -5 52 -8 115 -8 63 0 115 2 115
5 0 19 -29 59 -51 71 -35 17 -96 18 -128 0z"/>
</g>
</svg>
