<?xml version="1.0" standalone="no"?>
<!DOCTYPE svg PUBLIC "-//W3C//DTD SVG 20010904//EN"
 "http://www.w3.org/TR/2001/REC-SVG-20010904/DTD/svg10.dtd">
<svg version="1.0" xmlns="http://www.w3.org/2000/svg"
 width="1150.000000pt" height="185.000000pt" viewBox="0 0 1150.000000 185.000000"
 preserveAspectRatio="xMidYMid meet">

<g transform="translate(0.000000,185.000000) scale(0.100000,-0.100000)"
fill="#2563eb" stroke="none">
<path d="M195 1771 c-22 -10 -57 -37 -78 -61 -76 -84 -72 -37 -72 -790 l0
-675 23 -42 c28 -54 78 -104 128 -129 37 -18 70 -19 738 -22 l700 -2 53 25
c29 15 68 44 87 67 68 78 66 60 66 783 0 465 -3 662 -11 686 -21 61 -76 126
-131 153 l-52 26 -705 0 c-661 0 -709 -2 -746 -19z m1514 -427 c32 -9 51 -20
48 -27 -2 -7 -13 -36 -23 -65 -16 -45 -22 -52 -39 -47 -77 22 -110 7 -121 -52
l-6 -33 76 0 76 0 0 -70 0 -70 -72 0 -73 0 3 -215 3 -215 -91 0 -90 0 0 215 0
215 -45 0 -45 0 0 70 0 70 45 0 c42 0 45 2 45 28 0 70 47 154 104 184 55 30
131 34 205 12z m-601 -156 l3 -68 69 0 70 0 0 -70 0 -70 -72 0 -73 0 5 -137
c5 -134 6 -138 30 -150 23 -12 44 -11 91 3 13 4 22 -9 38 -58 23 -68 22 -70
-39 -88 -80 -23 -178 -7 -230 37 -56 47 -64 73 -68 241 l-4 152 -44 0 -44 0 0
70 0 70 45 0 45 0 0 70 0 71 88 -3 87 -3 3 -67z m-469 -78 c98 -43 163 -143
165 -257 l1 -58 -217 -3 c-210 -2 -216 -3 -211 -22 9 -35 67 -77 116 -84 49
-8 114 6 159 32 27 15 28 15 67 -29 22 -24 40 -49 41 -55 1 -36 -142 -94 -235
-94 -167 0 -296 93 -325 237 -15 72 -6 130 33 205 36 68 96 117 176 143 61 20
164 13 230 -15z"/>
<path d="M423 979 c-25 -16 -53 -61 -53 -85 0 -2 61 -4 135 -4 74 0 135 3 135
6 0 21 -35 73 -59 87 -40 24 -118 22 -158 -4z"/>
<path d="M7350 948 l0 -393 80 0 80 0 0 163 c0 184 9 219 62 252 58 35 161 20
184 -27 5 -10 11 -101 14 -202 l5 -184 78 -1 77 -1 0 196 c0 207 -5 241 -47
297 -39 52 -96 76 -183 76 -72 1 -90 -4 -182 -52 -5 -2 -8 57 -8 132 l0 136
-80 0 -80 0 0 -392z"/>
<path d="M10650 1175 c0 -91 -2 -165 -3 -165 -2 0 -22 17 -44 38 -95 90 -274
83 -369 -15 -57 -59 -78 -122 -72 -222 5 -86 27 -138 80 -187 50 -48 93 -65
174 -71 66 -5 79 -3 129 22 31 15 65 40 77 56 12 16 25 29 29 29 4 0 7 -23 6
-52 0 -42 3 -52 17 -54 47 -7 46 -15 46 397 l0 389 -35 0 -35 0 0 -165z m-150
-129 c83 -14 150 -110 150 -213 -1 -128 -91 -223 -213 -223 -120 0 -208 94
-209 221 0 104 67 201 149 214 21 4 43 8 48 10 6 2 17 2 25 0 8 -2 31 -6 50
-9z"/>
<path d="M2629 1243 c-1 -5 -2 -35 -3 -68 l-1 -60 -48 -3 -48 -3 2 -57 3 -57
45 -5 46 -5 3 -154 c4 -176 15 -213 78 -252 49 -30 172 -39 226 -16 l37 15
-21 54 c-11 29 -21 54 -22 56 -2 1 -17 -3 -35 -9 -24 -8 -39 -8 -61 1 -41 17
-52 61 -48 195 l3 110 73 3 72 3 0 59 0 60 -75 0 -75 0 0 70 0 70 -75 0 c-41
0 -75 -3 -76 -7z"/>
<path d="M2153 1116 c-69 -16 -105 -36 -132 -75 -45 -63 -34 -161 22 -203 42
-32 54 -36 171 -59 104 -20 126 -30 126 -60 0 -53 -147 -68 -251 -25 l-56 23
-27 -54 c-14 -29 -26 -55 -26 -58 0 -2 26 -14 58 -26 48 -20 76 -23 182 -24
112 0 130 3 173 24 65 32 97 80 97 146 -1 91 -39 127 -167 157 -160 37 -168
40 -171 70 -2 18 4 31 20 42 32 23 135 21 198 -3 l50 -19 19 36 c37 74 37 78
-16 96 -67 24 -194 29 -270 12z"/>
<path d="M3218 1117 c-133 -38 -208 -142 -208 -286 1 -109 56 -198 154 -248
104 -54 295 -40 368 26 l32 29 -40 44 -41 45 -43 -25 c-33 -20 -57 -26 -104
-26 -72 0 -118 21 -146 67 -36 59 -40 58 194 55 246 -3 230 -10 216 93 -9 62
-41 128 -82 166 -62 58 -205 86 -300 60z m184 -137 c20 -16 41 -43 46 -60 l11
-30 -146 0 -145 0 7 27 c14 58 68 93 140 93 41 0 57 -5 87 -30z"/>
<path d="M4627 1116 c-176 -51 -259 -254 -171 -417 53 -97 129 -141 255 -147
103 -5 184 15 231 57 l32 28 -40 46 -39 45 -44 -26 c-54 -32 -137 -35 -193 -8
-39 19 -84 78 -73 96 4 6 86 10 222 10 l216 0 -6 64 c-11 117 -84 217 -179
246 -63 19 -156 21 -211 6z m178 -126 c27 -17 65 -71 65 -94 0 -3 -65 -6 -145
-6 -95 0 -145 4 -145 10 0 24 31 69 62 89 44 28 119 28 163 1z"/>
<path d="M5392 1111 c-29 -10 -64 -29 -77 -41 l-25 -23 0 36 0 37 -75 0 -75 0
0 -282 0 -283 53 1 c28 1 64 2 80 3 l27 1 0 163 c0 145 2 165 20 195 23 37 88
71 138 72 l32 0 0 70 c0 66 -1 70 -22 70 -13 -1 -47 -9 -76 -19z"/>
<path d="M5860 1118 c-19 -5 -52 -23 -72 -39 l-38 -30 0 36 0 35 -80 0 -80 0
0 -282 0 -283 79 0 79 0 4 165 c3 138 7 170 22 196 25 42 69 66 122 68 l44 1
0 73 c0 80 -2 82 -80 60z"/>
<path d="M6211 1114 c-126 -34 -201 -139 -201 -283 0 -122 81 -233 193 -266
109 -32 260 -13 326 43 l35 29 -43 46 -42 46 -34 -24 c-44 -29 -112 -39 -166
-25 -49 13 -109 68 -109 99 0 21 3 21 215 21 l215 0 0 58 c-1 132 -73 223
-203 258 -65 17 -117 17 -186 -2z m176 -124 c30 -18 63 -65 63 -90 0 -6 -50
-10 -144 -10 l-145 0 11 30 c5 17 26 44 46 60 30 25 46 30 87 30 32 0 62 -7
82 -20z"/>
<path d="M6913 1120 c-140 -28 -227 -135 -228 -280 0 -168 107 -278 281 -288
114 -6 182 15 240 75 25 25 43 50 42 55 -2 5 -29 23 -60 40 l-57 30 -30 -29
c-51 -51 -135 -59 -197 -19 -31 21 -63 89 -64 135 -1 136 168 214 256 118 l32
-35 57 32 c32 17 57 36 57 41 -1 19 -35 62 -69 85 -63 43 -163 59 -260 40z"/>
<path d="M8342 1112 c-28 -10 -60 -26 -70 -35 -26 -24 -32 -21 -32 13 l0 30
-75 0 -75 0 0 -282 0 -283 80 0 80 0 1 160 c0 96 5 174 12 195 28 79 145 108
209 51 l33 -29 5 -189 5 -188 78 0 79 0 -4 215 c-3 230 -7 249 -60 296 -64 59
-175 78 -266 46z"/>
<path d="M9005 1117 c-135 -45 -204 -136 -205 -271 0 -102 16 -142 80 -208 67
-66 124 -88 235 -88 88 0 159 20 204 58 l35 29 -43 46 -42 46 -34 -24 c-44
-29 -112 -39 -166 -25 -49 14 -109 68 -109 99 0 22 1 22 216 19 l216 -3 -4 70
c-8 121 -75 215 -176 245 -59 18 -163 21 -207 7z m172 -127 c30 -18 63 -65 63
-90 0 -6 -49 -10 -140 -10 -137 0 -140 1 -140 22 0 12 18 38 40 60 37 34 46
38 93 38 34 0 63 -7 84 -20z"/>
<path d="M9771 1115 c-24 -7 -56 -26 -72 -41 l-29 -28 0 37 0 37 -80 0 -80 0
0 -282 0 -283 79 0 79 0 4 165 c3 140 6 170 22 196 24 40 62 63 120 70 l46 7
0 68 c0 78 -4 81 -89 54z"/>
<path d="M3721 918 l4 -203 31 -55 c25 -43 42 -61 84 -82 83 -44 205 -36 269
17 37 32 41 31 41 -7 l0 -33 75 0 75 -1 0 283 0 283 -80 0 -80 0 0 -162 c0
-178 -8 -212 -61 -251 -38 -27 -120 -28 -149 -2 -43 38 -50 74 -50 250 l0 165
-81 0 -81 0 3 -202z"/>
<path d="M11056 1096 c-56 -21 -86 -45 -123 -99 -38 -56 -58 -141 -48 -206 15
-101 93 -195 188 -227 122 -40 334 27 297 95 -6 12 -13 21 -15 21 -2 0 -25
-14 -50 -32 -34 -24 -58 -33 -103 -36 -129 -9 -218 52 -247 171 l-7 27 237 0
238 0 -5 63 c-8 95 -54 169 -132 209 -53 28 -174 35 -230 14z m180 -55 c50
-23 81 -53 105 -106 36 -78 45 -75 -186 -75 -113 0 -205 3 -205 8 0 30 26 89
53 119 61 69 152 91 233 54z"/>
<path d="M9976 647 c-37 -27 -16 -97 29 -97 50 0 73 66 33 94 -27 19 -39 20
-62 3z"/>
</g>
</svg>
